# Blender 4.4.3
# www.blender.org
mtllib platform_collider.mtl
o Cylinder
v 0.000000 -20.000000 -9.999998
v 0.000000 -0.000001 -10.000000
v 8.660254 -20.000000 -4.999999
v 8.660254 -0.000000 -5.000000
v 8.660254 -20.000000 5.000001
v 8.660254 0.000000 5.000000
v 0.000000 -20.000000 10.000002
v 0.000000 0.000001 10.000000
v -8.660254 -20.000000 5.000001
v -8.660254 0.000000 5.000000
v -8.660254 -20.000000 -4.999999
v -8.660254 -0.000000 -5.000000
v 8.660254 -20.000000 -0.793332
v 8.660254 -20.000000 0.793335
v 8.660254 0.000000 0.793334
v 8.660254 -0.000000 -0.793333
v -8.660254 -20.000000 1.090835
v -8.660254 -20.000000 -1.090832
v -8.660254 -0.000000 -1.090834
v -8.660254 0.000000 1.090833
v -8.110254 -20.000000 0.793335
v -8.110254 -20.000000 -0.793332
v -8.110254 -0.000000 -0.793333
v -8.110254 0.000000 0.793334
v -0.000001 -40.000000 -9.999997
v 8.660253 -40.000000 -4.999997
v 8.660253 -40.000000 0.793336
v 8.660253 -40.000000 5.000003
v -0.000001 -40.000000 10.000003
v -8.660254 -40.000000 5.000003
v -8.660254 -40.000000 -1.090831
v -8.660254 -40.000000 -4.999997
v 8.660253 -40.000000 -0.793331
v -8.660254 -40.000000 1.090837
v -8.110255 -40.000000 0.793336
v -8.110255 -40.000000 -0.793331
v -0.000002 -60.000000 -9.999995
v 8.660252 -60.000000 -4.999996
v 8.660252 -60.000000 0.793338
v 8.660252 -60.000000 5.000004
v -0.000002 -60.000000 10.000005
v -8.660255 -60.000000 5.000004
v -8.660255 -60.000000 -1.090829
v -8.660255 -60.000000 -4.999996
v 8.660252 -60.000000 -0.793330
v -8.660255 -60.000000 1.090838
v -8.110256 -60.000000 0.793338
v -8.110256 -60.000000 -0.793330
vn 0.5000 -0.0000 -0.8660
vn 1.0000 -0.0000 -0.0000
vn 0.5000 -0.0000 0.8660
vn -0.5000 -0.0000 0.8660
vn -1.0000 -0.0000 -0.0000
vn -0.5000 -0.0000 -0.8660
vn -0.4758 -0.0000 -0.8796
vn -0.4758 -0.0000 0.8796
vn -0.0000 1.0000 -0.0000
vn -0.0000 -1.0000 -0.0000
vt 0.327363 0.999912
vt 0.000088 0.999912
vt 0.000088 0.836275
vt 0.327362 0.836275
vt 0.327363 0.738229
vt 0.000088 0.738229
vt 0.000088 0.672637
vt 0.327363 0.672637
vt 0.000088 0.509000
vt 0.327363 0.509000
vt 0.000088 0.345363
vt 0.327363 0.345363
vt 0.327363 0.229317
vt 0.000088 0.229316
vt 0.000088 0.163725
vt 0.327363 0.163725
vt 0.000088 0.000088
vt 0.327363 0.000088
vt 0.000088 0.770684
vt 0.327363 0.770684
vt 0.000088 0.279771
vt 0.327363 0.279771
vt 0.000088 0.270771
vt 0.327363 0.270771
vt 0.000088 0.238317
vt 0.327363 0.238317
vt 0.609686 0.180855
vt 0.609686 0.244193
vt 0.329053 0.244193
vt 0.329053 0.176035
vt 0.600775 0.176035
vt 0.329053 0.150327
vt 0.600775 0.150327
vt 0.329053 0.082169
vt 0.609686 0.082169
vt 0.609686 0.145507
vt 0.469369 0.001157
vt 0.469369 0.325205
vt 0.000057 1.365291
vt 0.000057 1.201644
vt 0.327352 1.201644
vt 0.327352 1.365291
vt 0.000057 -0.082128
vt 0.000057 -0.091129
vt 0.327352 -0.091129
vt 0.327352 -0.082128
vt 0.000057 1.037997
vt 0.000057 0.874349
vt 0.327352 0.874349
vt 0.327352 1.037997
vt 0.000057 0.710702
vt 0.000057 0.645106
vt 0.327352 0.645107
vt 0.327352 0.710702
vt 0.000057 1.103592
vt 0.327352 1.103592
vt 0.000057 0.636106
vt 0.327352 0.636106
vt 0.000057 1.136049
vt 0.327352 1.136049
vt 0.000057 0.603649
vt 0.000057 0.594649
vt 0.327352 0.594649
vt 0.327352 0.603649
vt 0.000057 0.529053
vt 0.000057 0.365406
vt 0.327352 0.365406
vt 0.327352 0.529053
vt 0.000057 0.417815
vt 0.000057 0.352219
vt 0.327352 0.352219
vt 0.327352 0.417815
vt 0.000057 0.024924
vt 0.000057 -0.040671
vt 0.327352 -0.040671
vt 0.327352 0.024924
vt 0.000057 -0.156724
vt 0.000057 -0.320372
vt 0.327352 -0.320372
vt 0.327352 -0.156724
vt 0.000057 0.188572
vt 0.327352 0.188572
vt 0.000057 -0.049671
vt 0.327352 -0.049671
vt 0.000057 0.515867
vt 0.000057 0.450271
vt 0.327352 0.450271
vt 0.327352 0.515867
vt 0.000057 0.679514
vt 0.327352 0.679514
s 0
usemtl 
f 1/1/1 2/2/1 4/3/1 3/4/1
f 14/5/2 15/6/2 6/7/2 5/8/2
f 5/8/3 6/7/3 8/9/3 7/10/3
f 7/10/4 8/9/4 10/11/4 9/12/4
f 18/13/5 19/14/5 12/15/5 11/16/5
f 11/16/6 12/15/6 2/17/6 1/18/6
f 3/4/2 4/3/2 16/19/2 13/20/2
f 13/20/2 16/19/2 15/6/2 14/5/2
f 9/12/5 10/11/5 20/21/5 17/22/5
f 17/22/7 20/21/7 24/23/7 21/24/7
f 21/24/5 24/23/5 23/25/5 22/26/5
f 19/14/8 18/13/8 22/26/8 23/25/8
f 20/27/9 10/28/9 6/29/9 15/30/9 24/31/9
f 15/30/9 16/32/9 23/33/9 24/31/9
f 16/32/9 4/34/9 12/35/9 19/36/9 23/33/9
f 2/37/9 12/35/9 4/34/9
f 8/38/9 6/29/9 10/28/9
f 1/39/1 3/40/1 26/41/1 25/42/1
f 36/43/8 31/44/8 43/45/8 48/46/8
f 5/47/3 7/48/3 29/49/3 28/50/3
f 9/51/5 17/52/5 34/53/5 30/54/5
f 14/55/2 5/47/2 28/50/2 27/56/2
f 17/52/7 21/57/7 35/58/7 34/53/7
f 3/40/2 13/59/2 33/60/2 26/41/2
f 22/61/8 18/62/8 31/63/8 36/64/8
f 13/59/2 14/55/2 27/56/2 33/60/2
f 11/65/6 1/66/6 25/67/6 32/68/6
f 21/57/5 22/61/5 36/64/5 35/58/5
f 18/62/5 11/65/5 32/68/5 31/63/5
f 7/48/4 9/51/4 30/54/4 29/49/4
f 27/69/2 28/70/2 40/71/2 39/72/2
f 30/73/5 34/74/5 46/75/5 42/76/5
f 32/77/6 25/78/6 37/79/6 44/80/6
f 28/70/3 29/81/3 41/82/3 40/71/3
f 35/83/5 36/43/5 48/46/5 47/84/5
f 26/85/2 33/86/2 45/87/2 38/88/2
f 29/81/4 30/73/4 42/76/4 41/82/4
f 34/74/7 35/83/7 47/84/7 46/75/7
f 25/89/1 26/85/1 38/88/1 37/90/1
f 33/86/2 27/69/2 39/72/2 45/87/2
f 31/44/5 32/77/5 44/80/5 43/45/5
f 48/46/10 45/87/10 39/72/10 47/84/10
f 48/46/10 43/45/10 44/80/10 38/88/10 45/87/10
f 39/72/10 40/71/10 42/76/10 46/75/10 47/84/10
f 41/82/10 42/76/10 40/71/10
f 44/80/10 37/90/10 38/88/10
