# Blender 4.4.3
# www.blender.org
mtllib facility.mtl
o Crate1
v -0.664425 3.440039 -9.022181
v -0.664425 6.440042 -9.022187
v -0.664425 3.440039 -12.022181
v -0.664425 6.440039 -12.022187
v 2.335575 3.440039 -9.022181
v 2.335575 6.440042 -9.022187
v 2.335575 3.440039 -12.022181
v 2.335575 6.440039 -12.022187
vn -1.0000 -0.0000 -0.0000
vn -0.0000 -0.0000 -1.0000
vn 1.0000 -0.0000 -0.0000
vn -0.0000 -0.0000 1.0000
vn -0.0000 -1.0000 -0.0000
vn -0.0000 1.0000 -0.0000
vt 0.999900 0.999900
vt 0.000100 0.999900
vt 0.000100 0.000100
vt 0.999900 0.000100
s 1
usemtl Crate
f 1/1/1 2/2/1 4/3/1 3/4/1
f 3/1/2 4/2/2 8/3/2 7/4/2
f 7/3/3 8/4/3 6/1/3 5/2/3
f 5/3/4 6/4/4 2/1/4 1/2/4
f 3/4/5 7/1/5 5/2/5 1/3/5
f 8/2/6 4/3/6 2/4/6 6/1/6
o Crate2
v -0.734087 3.449054 -12.820662
v -0.734087 5.449054 -12.820662
v 0.163204 3.449054 -14.608081
v 0.163204 5.449054 -14.608081
v 1.053333 3.449054 -11.923371
v 1.053333 5.449054 -11.923371
v 1.950624 3.449054 -13.710790
v 1.950624 5.449054 -13.710790
vn -0.8937 -0.0000 -0.4486
vn 0.4486 -0.0000 -0.8937
vn 0.8937 -0.0000 0.4486
vn -0.4486 -0.0000 0.8937
vn -0.0000 -1.0000 -0.0000
vn -0.0000 1.0000 -0.0000
vt 0.999900 0.999900
vt 0.000100 0.999900
vt 0.000100 0.000100
vt 0.999900 0.000100
s 1
usemtl Crate
f 9/5/7 10/6/7 12/7/7 11/8/7
f 11/5/8 12/6/8 16/7/8 15/8/8
f 15/7/9 16/8/9 14/5/9 13/6/9
f 13/7/10 14/8/10 10/5/10 9/6/10
f 11/8/11 15/5/11 13/6/11 9/7/11
f 16/6/12 12/7/12 10/8/12 14/5/12
o Crate3
v 4.561648 3.459065 -11.207397
v 4.561648 5.459065 -11.207397
v 4.280957 3.459065 -9.227192
v 4.280957 5.459070 -9.227192
v 2.581443 3.459065 -11.488087
v 2.581443 5.459065 -11.488087
v 2.300753 3.459065 -9.507882
v 2.300753 5.459065 -9.507882
vn 0.9901 -0.0000 0.1403
vn -0.1403 -0.0000 0.9901
vn -0.9901 -0.0000 -0.1403
vn 0.1403 -0.0000 -0.9901
vn -0.0000 -1.0000 -0.0000
vn -0.0000 1.0000 -0.0000
vt 0.999900 0.999900
vt 0.000100 0.999900
vt 0.000100 0.000100
vt 0.999900 0.000100
s 1
usemtl Crate
f 17/9/13 18/10/13 20/11/13 19/12/13
f 19/9/14 20/10/14 24/11/14 23/12/14
f 23/11/15 24/12/15 22/9/15 21/10/15
f 21/11/16 22/12/16 18/9/16 17/10/16
f 19/12/17 23/9/17 21/10/17 17/11/17
f 24/10/18 20/11/18 18/12/18 22/9/18
o Crate4
v -0.159782 3.459059 -23.735001
v -0.159782 5.959059 -23.735001
v -2.138135 3.459059 -23.441536
v -2.138135 5.959059 -23.441536
v -0.453247 3.459059 -25.713352
v -0.453247 5.959059 -25.713352
v -2.431599 3.459059 -25.419888
v -2.431599 5.959059 -25.419888
vn 0.1467 -0.0000 0.9892
vn -0.9892 -0.0000 0.1467
vn -0.1467 -0.0000 -0.9892
vn 0.9892 -0.0000 -0.1467
vn -0.0000 -1.0000 -0.0000
vn -0.0000 1.0000 -0.0000
vt 0.999900 0.999900
vt 0.000100 0.999900
vt 0.000100 0.000100
vt 0.999900 0.000100
s 1
usemtl Crate
f 25/13/19 26/14/19 28/15/19 27/16/19
f 27/13/20 28/14/20 32/15/20 31/16/20
f 31/15/21 32/16/21 30/13/21 29/14/21
f 29/15/22 30/16/22 26/13/22 25/14/22
f 27/16/23 31/13/23 29/14/23 25/15/23
f 32/14/24 28/15/24 26/16/24 30/13/24
o Crate5
v -14.062184 3.459060 -21.144672
v -14.062184 5.459062 -21.144672
v -14.342875 3.459063 -19.164467
v -14.342875 5.459063 -19.164467
v -16.042389 3.459060 -21.425362
v -16.042389 5.459062 -21.425362
v -16.323080 3.459063 -19.445158
v -16.323080 5.459062 -19.445158
vn 0.9901 -0.0000 0.1403
vn -0.1403 -0.0000 0.9901
vn -0.9901 -0.0000 -0.1403
vn 0.1403 -0.0000 -0.9901
vn -0.0000 -1.0000 -0.0000
vn -0.0000 1.0000 -0.0000
vt 0.999900 0.999900
vt 0.000100 0.999900
vt 0.000100 0.000100
vt 0.999900 0.000100
s 1
usemtl Gate
f 33/17/25 34/18/25 36/19/25 35/20/25
f 35/17/26 36/18/26 40/19/26 39/20/26
f 39/19/27 40/20/27 38/17/27 37/18/27
f 37/19/28 38/20/28 34/17/28 33/18/28
f 35/20/29 39/17/29 37/18/29 33/19/29
f 40/18/30 36/19/30 34/20/30 38/17/30
o Cube
v -1.238422 5.943251 -23.514257
v -1.238422 7.242840 -23.514257
v -1.238422 5.943250 -28.555229
v -1.238422 7.242840 -28.555229
v -1.065178 5.943251 -23.514257
v -1.065178 7.242840 -23.514257
v -1.065178 5.943250 -28.555229
v -1.065178 7.242840 -28.555229
vn -1.0000 -0.0000 -0.0000
vn -0.0000 -0.0000 -1.0000
vn 1.0000 -0.0000 -0.0000
vn -0.0000 -0.0000 1.0000
vn -0.0000 -1.0000 -0.0000
vn -0.0000 1.0000 -0.0000
vt 0.000000 1.000000
vt 1.000000 1.000000
vt 1.000000 0.000000
vt -0.000000 0.000000
vt 0.371097 0.011340
vt 0.628902 0.011340
vt 0.628902 0.004467
vt 0.371097 0.004467
vt -0.000000 0.011340
vt -0.000000 0.004467
vt 1.000000 0.004467
vt 1.000000 0.011340
s 1
usemtl Gate
f 41/21/31 42/22/31 44/23/31 43/24/31
f 43/25/32 44/26/32 48/27/32 47/28/32
f 47/24/33 48/23/33 46/22/33 45/21/33
f 45/28/34 46/27/34 42/26/34 41/25/34
f 43/29/35 47/30/35 45/31/35 41/32/35
f 48/30/36 44/29/36 42/32/36 46/31/36
o Cube.004
v -16.195225 -2.647045 -8.929990
v -16.195225 3.487792 -8.929990
v -16.195225 -2.647060 -33.860428
v -16.195225 3.487777 -33.860428
v 17.679493 -2.647045 -8.929990
v 17.679493 3.487792 -8.929990
v 17.679493 -2.647060 -33.860428
v 17.679493 3.487777 -33.860428
v -33.123390 -2.647045 -8.929990
v -33.123390 -2.647060 -33.860428
v -33.123390 3.487792 -8.929990
v -33.123390 3.487777 -33.860428
v -33.123390 15.995302 -8.929996
v -33.123390 15.995289 -33.860428
v -0.611669 -2.647060 -33.860428
v -0.611669 3.487777 -33.860428
v -0.611669 -2.647045 -8.929990
v -0.611669 3.487792 -8.929990
v -16.195225 -2.647053 -23.526541
v -16.195225 3.487784 -23.526541
v 17.679493 -2.647053 -23.526541
v 17.679493 3.487784 -23.526541
v -33.123390 -2.647053 -23.526541
v -33.123390 3.487784 -23.526541
v -33.123390 15.995296 -23.526552
v -0.611669 3.487784 -23.526541
v -0.611669 -2.647053 -23.526541
v -16.195225 -2.647054 -29.403179
v -0.611669 8.025613 -29.403179
v 17.679493 -2.647054 -29.403179
v 17.679493 3.487783 -29.403179
v -33.123390 -2.647054 -29.403179
v -33.123390 3.487783 -29.403179
v -33.123390 15.995294 -29.403191
v -0.611669 3.487783 -29.403179
v -0.611669 -2.647054 -29.403179
v -16.195225 8.025620 -8.929996
v -33.123390 8.025620 -8.929996
v -33.123390 8.025606 -33.860428
v -16.195225 8.025606 -33.860428
v -16.195225 8.025606 -23.526541
v -33.123390 8.025613 -23.526541
v -33.123390 8.025613 -29.403179
v -16.195225 8.025613 -29.403179
v -0.611669 3.487783 -28.523357
v -0.611669 -2.647054 -28.523357
v -16.195225 -2.647054 -28.523357
v -16.195225 3.487783 -28.523357
v 17.679493 -2.647054 -28.523357
v 17.679493 3.487783 -28.523357
v -33.123390 -2.647054 -28.523357
v -33.123390 3.487783 -28.523357
v -33.123390 15.995294 -28.523369
v -16.195225 8.025609 -28.523357
v -33.123390 8.025613 -28.523357
v -0.611669 8.025613 -28.523357
v -20.434919 -2.647060 -33.860428
v -20.434919 3.487777 -33.860428
v -0.611669 4.922544 -8.929990
v -20.434919 -2.647045 -8.929990
v -20.434919 15.995289 -33.860428
v -20.434919 15.995302 -8.929996
v -20.434919 15.995296 -23.526552
v -20.434919 -2.647053 -23.526541
v -20.434919 -2.647054 -29.403179
v -20.434919 15.995294 -29.403191
v -20.434919 8.025606 -33.860428
v -20.434919 8.025620 -8.929996
v -20.434919 15.995294 -28.523369
v -20.434919 -2.647054 -28.523357
v -20.434919 8.025607 -23.526541
v -20.434919 8.025609 -29.403179
v -20.434919 8.025609 -28.523357
v -23.782907 -2.647060 -33.860428
v -23.782907 3.487789 -8.929990
v -23.782907 15.995302 -8.929996
v -23.782907 15.995296 -23.526552
v -23.782907 -2.647053 -23.526541
v -23.782907 -2.647054 -29.403179
v -23.782907 15.995294 -29.403191
v -23.782907 8.025620 -8.929996
v -23.782907 15.995294 -28.523369
v -23.782907 -2.647054 -28.523357
v -23.782907 3.487777 -33.860428
v -23.782907 -2.647045 -8.929990
v -23.782907 15.995289 -33.860428
v -23.782907 8.025606 -33.860428
v -16.195225 -2.647038 0.589213
v -16.195225 3.487798 0.589213
v 17.679493 -2.647038 0.589213
v 17.679493 3.487798 0.589213
v -0.611669 -2.647038 0.589213
v -0.611669 3.487798 0.589213
v -20.434919 -2.647038 0.589213
v -23.782907 15.995309 0.589206
v -33.123390 15.995309 0.589206
v -16.195225 8.025626 0.589207
v -33.123390 8.025626 0.589207
v -23.782907 8.025626 0.589207
v -20.434919 3.487798 0.589213
v -23.782907 -2.647038 0.589213
v -20.434919 8.025626 0.589207
v -20.434919 15.995309 0.589206
v -23.782907 3.487798 0.589213
v 17.679493 4.922544 -8.929990
v 17.679493 4.922547 0.589213
v -0.611669 4.922547 0.589213
v -11.220087 -2.647060 -33.860428
v -11.220087 3.487777 -33.860428
v -11.220087 -2.647045 -8.929990
v -11.220087 3.487792 -8.929990
v -11.220087 -2.647053 -23.526541
v -11.220087 3.487784 -23.526541
v -11.220087 8.025611 -28.523357
v -11.220087 8.025613 -29.403179
v -11.220087 -2.647054 -29.403179
v -11.220087 3.487783 -28.523357
v -11.220087 -2.647054 -28.523357
v -11.220087 -2.647038 0.589213
v -11.220087 3.487798 0.589213
v -11.220087 8.025620 -8.929996
v -0.611669 8.025620 -8.929996
v -0.611669 8.025608 -23.526541
v -11.220087 8.025608 -23.526541
v -0.611669 7.199996 -8.929996
v -11.720087 7.199996 -8.929996
v -11.220087 6.699996 -8.929996
v -10.720087 7.199996 -8.929996
v -11.220087 7.699996 -8.929996
v -11.720087 7.199987 -24.026501
v -11.220087 6.699987 -23.526541
v -0.611669 6.699987 -23.526541
v -0.611669 7.199987 -24.026541
v -0.611669 7.699987 -23.526541
v -0.611669 7.199987 -23.026541
v -16.195225 6.699996 -8.929996
v -15.695225 7.199996 -8.929996
v -16.195225 7.699996 -8.929996
v -16.195225 7.243205 -8.929996
v -15.695225 7.199985 -24.026501
v -16.195225 6.699985 -23.526541
v -15.695225 7.199987 -28.023357
v -16.195225 6.699986 -28.523357
v -0.611669 7.199988 -28.023357
v -0.611669 6.699987 -28.523357
v -0.611669 7.199986 -28.887962
v -0.611669 7.699987 -28.523357
v -11.220087 7.199988 -28.023357
v -11.220087 6.699986 -28.523357
v -32.113300 15.995309 0.589206
v -32.113255 8.025626 0.589207
v -33.123390 8.025626 -0.356500
v -33.123390 15.995309 -0.356501
v -32.113300 15.995309 -0.356501
v -32.113300 8.025630 -0.356500
v -32.113235 -2.253521 0.589192
v -33.123371 -2.253521 0.589192
v -33.123371 -2.253521 -0.356515
v -32.113281 -2.253517 -0.356515
v -26.195225 -0.224417 -23.526541
v -26.195225 -0.224418 -28.523357
v -26.195225 2.987786 -28.523357
v -26.195225 2.987784 -23.526541
v -25.695200 3.487784 -24.026501
v -25.695225 3.487786 -28.023357
v -30.195225 -0.224417 -23.526541
v -30.195225 -0.224418 -28.523357
v -30.195225 2.987786 -28.523357
v -30.195225 2.987784 -23.526541
v -29.695200 3.487784 -24.026501
v -29.695225 3.487786 -28.023357
vn -0.0000 -0.0000 -1.0000
vn 1.0000 -0.0000 -0.0000
vn -0.0000 -1.0000 -0.0000
vn -0.0000 1.0000 -0.0000
vn -1.0000 -0.0000 -0.0000
vn -0.0000 -0.0000 1.0000
vn 0.2796 0.9601 -0.0000
vn -0.1340 0.9910 -0.0000
vn 0.3891 0.5595 -0.7318
vn 0.7909 -0.0000 -0.6119
vn 0.4623 -0.8786 -0.1196
vn 0.5228 -0.8046 -0.2818
vn 0.0764 -0.7422 -0.6658
vn 0.2077 -0.9275 -0.3109
vn -0.7071 -0.7071 -0.0000
vn -0.0000 -0.7071 -0.7071
vn -0.0000 -0.7071 0.7071
vn -0.2199 0.5925 0.7750
vn -0.2753 0.7415 0.6119
vn -0.1313 0.7312 -0.6694
vn 0.7071 -0.7071 -0.0000
vn 0.5774 0.5774 -0.5774
vn 0.7071 -0.0000 -0.7071
vn -0.0000 -0.9576 0.2880
vn 0.3002 -0.9054 -0.3002
vn -0.0000 -0.8959 0.4444
vn 0.3431 -0.9243 0.1669
vn 0.3300 -0.8888 0.3180
vn 0.2998 -0.8076 0.5078
vn 0.4083 -0.8165 -0.4082
vn -0.0000 0.7071 0.7071
vt 0.321984 0.472100
vt 0.321984 0.351342
vt 0.138127 0.351342
vt 0.138127 0.472100
vt 0.778085 0.351342
vt 0.778085 0.472100
vt 1.138127 0.472100
vt 1.138127 0.351342
vt 0.351342 0.404732
vt 0.472100 0.404732
vt 0.472100 0.692049
vt 0.351342 0.692049
vt 0.387886 0.692049
vt 0.471340 0.692049
vt 0.471340 0.879424
vt 0.387886 0.879424
vt 0.778085 0.404732
vt 1.138127 0.404732
vt 1.138127 0.692049
vt 0.778085 0.692049
vt 0.569270 0.404732
vt 0.471340 0.404732
vt 0.569270 0.692049
vt 0.351342 0.289056
vt 0.472100 0.289056
vt 0.472100 0.201320
vt 0.351342 0.201320
vt 0.321984 0.404732
vt 0.321984 0.692049
vt 0.138127 0.692049
vt 0.138127 0.404732
vt 0.321984 0.289056
vt 0.321984 0.201320
vt 0.138127 0.201320
vt 0.138127 0.289056
vt 0.561422 0.404732
vt 0.561422 0.692049
vt 0.718297 0.692049
vt 0.718297 0.404732
vt 0.321984 0.561422
vt 0.138127 0.561422
vt 0.138127 0.718297
vt 0.321984 0.718297
vt 0.472100 0.879424
vt 0.500342 0.692049
vt 0.500342 0.879424
vt 0.569270 0.351342
vt 0.569270 0.472100
vt 0.569270 0.306375
vt 0.778085 0.306375
vt 1.138127 0.306375
vt 0.561422 0.306375
vt 0.718297 0.306375
vt 0.321984 0.306375
vt 0.138127 0.306375
vt 0.471340 0.306375
vt 0.351342 0.306375
vt 0.472100 0.306375
vt 0.778085 0.201320
vt 1.138127 0.201320
vt 1.138127 0.289056
vt 0.778085 0.289056
vt 0.471340 0.472100
vt 0.471340 0.561422
vt 0.561422 0.201320
vt 0.561422 0.289056
vt 0.718297 0.289056
vt 0.718297 0.201320
vt 0.569270 0.201320
vt 0.569270 0.289056
vt 0.471340 0.201320
vt 0.471340 0.289056
vt 0.718297 0.860809
vt 0.561422 0.860809
vt 0.561422 0.879424
vt 0.718297 0.879424
vt 0.569270 0.561422
vt 0.778085 0.561422
vt 0.545171 0.299198
vt 0.535329 0.306375
vt 0.387886 0.306375
vt 0.387886 0.289056
vt 1.138127 0.879424
vt 0.778085 0.879424
vt 0.387886 0.472100
vt 0.387886 0.561422
vt 0.387886 0.201320
vt 0.387886 0.404732
vt 0.471340 0.351342
vt 0.387886 0.351342
vt 0.158011 0.561422
vt 0.158010 0.718297
vt 0.387886 0.718297
vt 0.351342 0.879424
vt 0.321984 0.879424
vt 0.569270 0.879424
vt 0.778085 0.500342
vt 1.138127 0.500342
vt 0.555013 0.306375
vt 0.546021 0.692049
vt 0.555013 0.692049
vt 0.555013 0.404732
vt 0.545171 0.394890
vt 0.545171 0.316217
vt 0.569270 0.555013
vt 0.579112 0.545171
vt 0.778085 0.545171
vt 0.535329 0.404732
vt 0.545171 0.414574
vt 0.545171 0.692049
vt 0.471340 0.555013
vt 0.481182 0.545171
vt 0.559428 0.545171
vt 0.535329 0.692049
vt 0.569270 0.535329
vt 0.471340 0.535329
vt 0.471340 0.546021
vt 0.158010 0.860809
vt 0.138127 0.860809
vt 0.138127 0.879424
vt 0.158010 0.879424
vt 0.359088 0.879424
vt 0.359088 0.860809
vt 0.158011 0.879424
vt 0.138128 0.879424
vt 0.138128 0.860809
vt 0.138128 0.359088
vt 0.158011 0.359088
vt 0.158010 0.561422
vt 0.158010 0.359088
vt 3.274992 -0.000000
vt 7.781189 -0.000001
vt 7.781188 0.991659
vt 3.274993 0.991660
vt 0.000001 -0.000001
vt -0.000000 0.991660
vt 7.622934 0.996659
vt 6.079284 0.996659
vt 6.079285 -0.000001
vt 7.622934 -0.000001
vt 10.914437 0.996660
vt 10.914437 0.000001
vt -0.000004 -0.000001
vt 4.528909 -0.000001
vt 4.528909 0.996658
vt -0.000003 0.996657
vt 0.051204 0.253518
vt 0.025933 0.253518
vt 0.252113 0.228247
vt 0.051204 0.026242
vt 0.277384 0.026242
vt 0.813550 0.026242
vt 0.813550 0.228247
vt 0.252113 0.991250
vt 0.277384 0.253518
vt 0.277384 0.991250
vt 0.813550 0.253518
vt 0.277384 0.000971
vt 0.813550 0.000971
vt 0.025933 0.000971
vt 0.051204 0.991250
vt 0.025933 0.991250
s 1
usemtl Terrace
f 132/33/37 122/34/37 58/35/37 60/36/37
f 63/37/37 64/38/37 56/39/37 55/40/37
f 69/41/38 70/42/38 54/43/38 53/44/38
f 108/45/39 49/46/39 136/47/39 142/48/39
f 75/49/39 69/50/39 53/51/39 65/52/39
f 161/53/40 68/54/40 50/46/40 159/55/40
f 80/56/41 81/57/41 60/58/41 58/59/41
f 133/34/42 123/33/42 59/36/42 57/35/42
f 126/60/39 133/61/39 57/62/39 71/63/39
f 128/64/40 134/65/40 62/66/40 82/67/40
f 90/68/41 86/69/41 61/70/41 73/71/41
f 135/72/37 87/73/37 62/74/37 134/75/37
f 70/50/40 74/49/40 66/52/40 54/51/40
f 160/53/39 75/49/39 65/52/39 158/55/39
f 139/76/38 54/43/38 153/77/38 154/78/38
f 156/79/37 157/80/37 64/38/37 63/37/37
f 166/81/39 94/82/39 75/49/39 160/53/39
f 98/83/40 93/82/40 74/49/40 70/50/40
f 103/84/41 90/68/41 73/71/41 101/85/41
f 124/61/40 125/60/40 73/63/40 61/62/40
f 131/86/39 126/60/39 71/63/39 99/87/39
f 57/44/41 59/43/41 72/42/41 71/41/41
f 165/81/40 96/88/40 68/54/40 161/53/40
f 94/82/39 97/83/39 69/50/39 75/49/39
f 97/89/38 98/90/38 70/42/38 69/41/38
f 55/59/38 56/58/38 79/57/38 78/56/38
f 63/91/39 55/92/39 78/93/39 84/94/39
f 64/38/37 157/80/37 52/95/37 88/96/37
f 122/65/39 127/64/39 80/67/39 58/66/39
f 87/97/41 91/98/41 82/99/41 62/100/41
f 56/92/40 64/91/40 83/94/40 79/93/40
f 156/101/39 63/91/39 84/94/39 164/102/39
f 130/86/40 128/64/40 82/67/40 101/87/40
f 99/89/41 100/90/41 81/57/41 80/56/41
f 60/58/41 81/57/41 91/98/41 87/97/41
f 100/90/41 72/42/41 90/68/41 103/84/41
f 89/54/40 172/53/40 162/81/40 102/88/40
f 88/103/43 92/104/43 83/94/43 64/91/43
f 132/33/37 60/36/37 87/73/37 135/72/37
f 72/42/41 59/43/41 86/69/41 90/68/41
f 201/105/41 200/106/41 146/107/41 144/108/41
f 81/57/41 100/90/41 103/84/41 91/98/41
f 85/46/40 169/55/40 172/53/40 89/54/40
f 71/41/41 72/42/41 100/90/41 99/89/41
f 125/60/40 130/86/40 101/87/40 73/63/40
f 78/56/38 79/57/38 98/90/38 97/89/38
f 84/94/39 78/93/39 97/83/39 94/82/39
f 163/102/40 162/81/40 104/82/40 77/94/40
f 127/64/39 131/86/39 99/87/39 80/67/39
f 91/98/41 103/84/41 101/85/41 82/99/41
f 79/93/40 83/94/40 93/82/40 98/83/40
f 164/102/39 84/94/39 94/82/39 166/81/39
f 92/96/37 163/109/37 77/110/37 83/38/37
f 93/90/38 83/57/38 77/98/38 194/111/38 193/112/38
f 76/104/39 95/88/39 118/113/39 113/114/39
f 65/52/39 53/51/39 138/115/39 140/116/39
f 52/95/37 106/117/37 115/118/37 88/96/37
f 51/103/39 76/104/39 113/114/39 105/119/39
f 95/88/39 67/54/39 112/120/39 118/113/39
f 67/54/39 49/46/39 108/45/39 112/120/39
f 129/69/41 123/43/41 152/76/41 147/107/41
f 52/95/37 51/121/37 105/122/37 106/117/37
f 114/99/38 117/85/38 121/84/38 120/98/38
f 117/85/38 111/71/38 119/68/38 121/84/38
f 89/54/40 102/88/40 121/113/40 119/120/40
f 102/88/40 92/104/40 120/114/40 121/113/40
f 109/100/38 114/99/38 120/98/38 115/97/38
f 92/104/40 88/103/40 115/119/40 120/114/40
f 89/54/40 119/120/40 116/45/40 85/46/40
f 111/71/38 110/70/38 116/69/38 119/68/38
f 146/73/42 199/123/42 198/124/42 144/74/42
f 59/36/42 123/33/42 129/72/42 86/73/42
f 113/114/39 118/113/39 131/86/39 127/64/39
f 111/120/40 117/113/40 130/86/40 125/60/40
f 106/117/37 132/33/37 135/72/37 115/118/37
f 117/113/40 114/114/40 128/64/40 130/86/40
f 105/119/39 113/114/39 127/64/39 122/65/39
f 118/113/39 112/120/39 126/60/39 131/86/39
f 110/45/40 111/120/40 125/60/40 124/61/40
f 115/118/37 135/72/37 134/75/37 109/125/37
f 114/114/40 109/119/40 134/65/40 128/64/40
f 112/120/39 108/45/39 133/61/39 126/60/39
f 53/44/38 54/43/38 139/76/38 138/126/38
f 106/117/37 105/122/37 122/34/37 132/33/37
f 167/79/42 168/80/42 137/95/42 136/121/42
f 138/40/42 139/39/42 141/38/42 140/37/42
f 148/117/42 137/95/42 145/96/42 150/118/42
f 152/33/42 148/117/42 150/118/42 147/72/42
f 147/72/42 150/118/42 151/125/42 143/75/42
f 136/121/42 137/95/42 148/117/42 142/122/42
f 199/123/42 147/72/42 143/75/42 198/124/42
f 142/122/42 148/117/42 152/33/42 149/34/42
f 116/69/38 110/70/38 151/108/38 150/107/38
f 110/45/40 124/61/40 143/127/40 151/48/40
f 158/55/39 65/52/39 140/116/39 167/128/39
f 159/55/40 50/46/40 137/47/40 168/128/40
f 85/46/40 116/45/40 150/48/40 145/47/40
f 123/43/41 133/44/41 149/126/41 152/76/41
f 61/70/41 86/69/41 200/106/41 201/105/41
f 133/61/39 108/45/39 142/48/39 149/127/39
f 153/51/40 107/52/40 155/116/40 154/115/40
f 54/39/37 66/38/37 107/129/37 153/130/37
f 141/38/42 139/39/42 154/130/42 155/129/42
f 66/43/41 141/76/41 155/78/41 107/77/41
f 49/46/39 158/55/39 167/128/39 136/47/39
f 140/37/42 141/38/42 168/80/42 167/79/42
f 104/84/38 195/131/38 194/111/38 77/98/38
f 76/104/39 164/102/39 166/81/39 95/88/39
f 92/104/40 102/88/40 162/81/40 163/102/40
f 51/103/39 156/101/39 164/102/39 76/104/39
f 93/82/40 165/81/40 161/53/40 74/49/40
f 95/88/39 166/81/39 160/53/39 67/54/39
f 51/121/37 52/95/37 157/80/37 156/79/37
f 67/54/39 160/53/39 158/55/39 49/46/39
f 171/49/40 172/53/40 169/55/40 170/52/40
f 85/69/38 145/107/38 187/132/38 186/133/38
f 182/134/38 181/135/38 192/136/38 195/131/38 104/84/38 171/68/38
f 177/137/42 176/138/42 173/139/42 170/110/42 169/109/42
f 74/42/38 180/140/38 183/141/38 173/142/38 107/77/38 66/43/38
f 186/143/42 185/144/42 174/145/42 177/137/42 169/109/42 85/96/42
f 137/76/38 50/43/38 184/146/38 187/132/38 145/107/38
f 104/82/40 162/81/40 172/53/40 171/49/40
f 173/142/38 183/141/38 182/134/38 171/68/38 170/69/38
f 174/145/42 175/147/42 176/138/42 177/137/42
f 180/140/38 181/135/38 182/134/38 183/141/38
f 184/148/42 185/144/42 186/143/42 187/149/42
f 192/136/38 193/112/38 194/111/38 195/131/38
f 173/139/42 176/138/42 175/147/42 159/80/42 107/129/42
f 107/52/44 159/55/44 168/128/44 155/116/44
f 155/129/42 168/80/42 141/38/42
f 202/150/40 201/151/40 144/152/40 198/153/40
f 124/61/40 202/150/40 198/153/40 143/127/40
f 124/61/40 61/62/40 201/151/40 202/150/40
f 203/106/38 199/107/38 204/154/38 207/155/38
f 129/61/39 203/150/39 200/151/39 86/62/39
f 129/61/39 147/127/39 199/156/39 203/150/39
f 207/150/39 204/156/39 205/157/39 206/158/39
f 199/123/42 146/73/42 205/159/42 204/160/42
f 200/73/37 203/161/37 207/162/37 206/159/37
f 146/107/41 200/106/41 206/155/41 205/154/41
f 68/54/45 96/88/54 209/88/55 208/54/56
f 208/54/56 209/88/67 215/88/67 214/54/58
usemtl TunnelWall
f 161/163/41 159/164/41 175/165/41 179/166/41
f 74/167/37 161/163/37 179/166/37 180/168/37
f 197/169/42 191/170/42 96/171/42 165/172/42
f 193/173/42 197/169/42 165/172/42 93/174/42
f 50/175/38 68/176/45 189/177/46 184/178/38
f 211/177/37 208/176/56 214/176/58 217/177/59
f 189/177/46 68/176/45 208/176/56 211/177/37
f 96/171/54 191/170/42 210/170/42 209/171/55
f 214/176/58 215/171/38 216/170/38 217/177/59
f 209/171/67 210/170/42 216/170/42 215/171/67
usemtl TunnelPanel
f 188/179/47 189/180/48 211/180/49 212/179/50
f 178/181/39 188/179/39 190/182/39 196/183/39
f 196/183/39 192/184/39 181/185/39 178/181/39
f 174/186/51 178/181/51 179/187/51 175/188/51
f 178/181/52 181/185/52 180/189/52 179/187/52
f 197/190/53 193/191/53 192/184/53 196/183/53
f 191/192/53 197/190/53 196/183/53 190/182/53
f 188/179/47 185/193/57 184/194/57 189/180/48
f 185/193/39 188/179/39 178/181/39 174/186/39
f 213/182/60 212/179/50 218/179/61 219/182/62
f 190/182/63 188/179/47 212/179/50 213/182/64
f 191/192/65 190/182/63 213/182/64 210/192/65
f 219/182/57 218/179/61 217/180/66 216/192/57
f 210/192/53 213/182/60 219/182/62 216/192/53
f 212/179/50 211/180/49 217/180/66 218/179/61
o Cylinder
v 2.058824 3.403644 -13.177151
v 2.058824 5.003643 -13.177151
v 2.491837 3.403644 -12.927151
v 2.491837 5.003643 -12.927151
v 2.491837 3.403644 -12.427151
v 2.491837 5.003643 -12.427151
v 2.058824 3.403644 -12.177151
v 2.058824 5.003643 -12.177151
v 1.625811 3.403644 -12.427151
v 1.625811 5.003643 -12.427151
v 1.625811 3.403644 -12.927151
v 1.625811 5.003643 -12.927151
vn 0.5000 -0.0000 -0.8660
vn 1.0000 -0.0000 -0.0000
vn 0.5000 -0.0000 0.8660
vn -0.5000 -0.0000 0.8660
vn -0.0000 1.0000 -0.0000
vn -1.0000 -0.0000 -0.0000
vn -0.5000 -0.0000 -0.8660
vn -0.0000 -1.0000 -0.0000
vt 1.000000 0.500000
vt 1.000000 1.000000
vt 0.833333 1.000000
vt 0.833333 0.500000
vt 0.666667 1.000000
vt 0.666667 0.500000
vt 0.500000 1.000000
vt 0.500000 0.500000
vt 0.333333 1.000000
vt 0.333333 0.500000
vt 0.457846 0.370000
vt 0.250000 0.490000
vt 0.042154 0.370000
vt 0.042154 0.130000
vt 0.250000 0.010000
vt 0.457846 0.130000
vt 0.166667 1.000000
vt 0.166667 0.500000
vt -0.000000 1.000000
vt -0.000000 0.500000
vt 0.750000 0.490000
vt 0.957846 0.370000
vt 0.957846 0.130000
vt 0.750000 0.010000
vt 0.542154 0.130000
vt 0.542154 0.370000
s 1
usemtl Barrel
f 220/195/68 221/196/68 223/197/68 222/198/68
f 222/198/69 223/197/69 225/199/69 224/200/69
f 224/200/70 225/199/70 227/201/70 226/202/70
f 226/202/71 227/201/71 229/203/71 228/204/71
f 223/205/72 221/206/72 231/207/72 229/208/72 227/209/72 225/210/72
f 228/204/73 229/203/73 231/211/73 230/212/73
f 230/212/74 231/211/74 221/213/74 220/214/74
f 220/215/75 222/216/75 224/217/75 226/218/75 228/219/75 230/220/75
